<?xml version="1.0" encoding="UTF-8" standalone="no"?>
<svg
   xmlns:dc="http://purl.org/dc/elements/1.1/"
   xmlns:cc="http://creativecommons.org/ns#"
   xmlns:rdf="http://www.w3.org/1999/02/22-rdf-syntax-ns#"
   xmlns:svg="http://www.w3.org/2000/svg"
   xmlns="http://www.w3.org/2000/svg"
   xmlns:sodipodi="http://sodipodi.sourceforge.net/DTD/sodipodi-0.dtd"
   xmlns:inkscape="http://www.inkscape.org/namespaces/inkscape"
   sodipodi:docname="warning.svg"
   inkscape:version="1.0 (4035a4fb49, 2020-05-01)"
   id="svg8"
   version="1.1"
   viewBox="0 0 210 297"
   height="297mm"
   width="210mm">
  <defs
     id="defs2">
    <marker
       viewBox="0 0 10 10"
       refY="5"
       refX="0"
       orient="auto"
       markerWidth="4"
       markerUnits="strokeWidth"
       markerHeight="3"
       id="ArrowEnd">
      <path
         id="path1612"
         d="M 0 0 L 10 5 L 0 10 z" />
    </marker>
    <marker
       viewBox="0 0 10 10"
       refY="5"
       refX="10"
       orient="auto"
       markerWidth="4"
       markerUnits="strokeWidth"
       markerHeight="3"
       id="ArrowStart">
      <path
         id="path1614"
         d="M 10 0 L 0 5 L 10 10 z" />
    </marker>
  </defs>
  <sodipodi:namedview
     inkscape:window-maximized="0"
     inkscape:window-y="349"
     inkscape:window-x="1007"
     inkscape:window-height="1437"
     inkscape:window-width="2161"
     showgrid="false"
     inkscape:document-rotation="0"
     inkscape:current-layer="layer1"
     inkscape:document-units="mm"
     inkscape:cy="538.47405"
     inkscape:cx="177.55103"
     inkscape:zoom="2.3824271"
     inkscape:pageshadow="2"
     inkscape:pageopacity="0.0"
     borderopacity="1.0"
     bordercolor="#666666"
     pagecolor="#ffffff"
     id="base" />
  <metadata
     id="metadata5">
    <rdf:RDF>
      <cc:Work
         rdf:about="">
        <dc:format>image/svg+xml</dc:format>
        <dc:type
           rdf:resource="http://purl.org/dc/dcmitype/StillImage" />
        <dc:title></dc:title>
      </cc:Work>
    </rdf:RDF>
  </metadata>
  <g
     id="layer1"
     inkscape:groupmode="layer"
     inkscape:label="Layer 1">
    <rect
       y="144.5896"
       x="66.698486"
       height="18.584229"
       width="64.859848"
       id="rect857"
       style="fill:#ffffff;stroke:#000000;stroke-width:0.171189;stroke-miterlimit:4;stroke-dasharray:none" />
    <rect
       y="144.59111"
       x="66.699997"
       height="12.672014"
       width="64.856827"
       id="rect850"
       style="fill:#ff2a2a;stroke:none;stroke-width:4.872" />
    <g
       transform="translate(105.34756,69.41765)"
       id="g848">
      <text
         xml:space="preserve"
         style="font-size:3.12582px;line-height:1.25;font-family:Stencil;-inkscape-font-specification:Stencil;text-align:center;text-anchor:middle;stroke-width:0.195363"
         x="-6.0252476"
         y="93.969025"
         id="text835"
         transform="scale(1.1686211,0.85570934)"><tspan
           sodipodi:role="line"
           id="tspan833"
           x="-6.0252476"
           y="93.969025"
           style="font-size:5.73067px;text-align:center;text-anchor:middle;stroke-width:0.195363">WARNING</tspan><tspan
           sodipodi:role="line"
           x="-6.0252476"
           y="101.13236"
           style="font-size:5.73067px;text-align:center;text-anchor:middle;stroke-width:0.195363"
           id="tspan841">AIRBAGS DISABLED</tspan></text>
      <text
         xml:space="preserve"
         style="font-size:4.23333px;line-height:1.25;font-family:Cinzel;-inkscape-font-specification:Cinzel;stroke-width:0.264583"
         x="-31.169355"
         y="92.065613"
         id="text839"><tspan
           sodipodi:role="line"
           id="tspan837"
           x="-31.169355"
           y="92.065613"
           style="stroke-width:0.264583">We die like REAL MEN</tspan></text>
    </g>
    <g
       transform="matrix(0.0552073,0,0,0.0552073,80.740037,144.463)"
       id="g4593">
      <path
         id="path4595"
         d="m -109.16602,7.2265625 c -0.13666,0.0017 -0.27279,0.017412 -0.40625,0.046875 -3.19494,0.029452 -6.17603,1.6944891 -7.78515,4.4824215 l -31.25,54.126953 -31.25,54.126958 h 0.002 c -3.41988,5.92217 1.01692,13.60908 7.85547,13.60937 h 62.5 62.501953 c 6.838552,-3.2e-4 11.277321,-7.68721 7.857422,-13.60937 l -31.25,-54.126958 -31.251955,-54.126953 c -1.46518,-2.5386342 -4.07917,-4.1634136 -6.97851,-4.4492184 -0.14501,-0.042788 -0.2944,-0.068998 -0.44532,-0.078125 h -0.004 c -0.0312,-0.00138 -0.0625,-0.00203 -0.0937,-0.00195 z"
         style="color:#000000;opacity:1;solid-color:#000000;fill:#000000;fill-opacity:1;stroke:none" />
      <path
         style="color:#000000;opacity:1;solid-color:#000000;fill:#ffffff;fill-opacity:1;stroke:none"
         d="m -109.16545,9.2265625 c -2.63992,-0.1247523 -5.13786,1.2403375 -6.45899,3.5292965 l -31.25,54.126953 -31.25,54.126958 c -2.67464,4.63164 0.77657,10.60914 6.125,10.60937 h 62.5 62.50196 c 5.34844,-2.5e-4 8.79965,-5.97774 6.125,-10.60937 l -31.25,-54.126958 -31.25196,-54.126953 c -1.20213,-2.082863 -3.38689,-3.4150037 -5.78906,-3.5292965 h -0.002 z"
         id="path4583" />
      <path
         style="color:#000000;opacity:1;solid-color:#000000;fill:#000000;fill-opacity:1;stroke:none"
         d="m -109.25919,11.224609 c -1.89626,-0.08961 -3.68385,0.887082 -4.63282,2.53125 l -31.25,54.126953 -31.25,54.126958 c -1.95283,3.38168 0.48755,7.6092 4.39258,7.60937 h 62.5 62.50196 c 3.905026,-1.8e-4 6.345394,-4.2277 4.39257,-7.60937 l -31.25,-54.126958 -31.25195,-54.126953 c -0.86311,-1.495461 -2.42763,-2.44919 -4.15234,-2.53125 z"
         id="path4577" />
      <path
         style="opacity:1;fill:#ffcc00;fill-opacity:1;stroke:none"
         id="path4573"
         d="m -46.997381,124.54655 h -62.501079 -62.50108 l 31.25054,-54.127524 31.25054,-54.127522 31.25054,54.127521 z" />
      <g
         id="g858"
         transform="translate(-188.06236)">
        <circle
           r="8.8173475"
           cy="111.11701"
           cx="78.564362"
           id="path846"
           style="opacity:1;fill:#000000;fill-opacity:1;stroke:none" />
        <path
           id="circle848"
           d="m 78.564453,42.955078 c -4.869714,-5.59e-4 -8.817839,3.946692 -8.818359,8.816406 3.15625,37.460938 0,0 3.15625,37.460938 8.93e-4,3.126411 2.535698,5.660342 5.662109,5.660156 3.126411,1.86e-4 5.661216,-2.533745 5.662109,-5.660156 3.154297,-37.460938 0,0 3.154297,-37.460938 -5.2e-4,-4.868951 -3.947455,-8.815886 -8.816406,-8.816406 z"
           style="opacity:1;fill:#000000;fill-opacity:1;stroke:none" />
      </g>
    </g>
    <g
       transform="matrix(0.01540038,0,0,0.01540038,16.332024,74.307855)"
       id="g2874" />
    <g
       transform="matrix(0.01540038,0,0,0.01540038,16.332024,74.307855)"
       id="g2893" />
    <g
       style="stroke:#000000;stroke-width:3.89601;stroke-miterlimit:4;stroke-dasharray:none"
       transform="matrix(0.01540038,0,0,0.01540038,116.84863,144.89159)"
       id="g3797">
      <path
         inkscape:connector-curvature="0"
         id="yellow"
         style="fill:#febe0b;fill-opacity:1;stroke:#000000;stroke-width:3.89601;stroke-miterlimit:4;stroke-dasharray:none"
         d="m 271.333,25.071 c -3.258,-5.646 -9.328,-8.938 -15.838,-8.591 -5.848,0.312 -11.086,3.522 -14.013,8.594 0,0 -222.736,385.738 -222.735,385.737 -3.066,5.313 -3.065,11.914 0.002,17.227 3.068,5.313 8.787,8.612 14.924,8.612 0,0 445.47,0 445.472,0 6.14,0 11.854,-3.3 14.927,-8.613 3.065,-5.312 3.065,-11.908 0.002,-17.225 -0.004,0 -222.741,-385.738 -222.741,-385.741 z" />
      <path
         inkscape:connector-curvature="0"
         id="boarder"
         style="fill:#d40000;fill-opacity:1;stroke:#000000;stroke-width:3.89601;stroke-miterlimit:4;stroke-dasharray:none"
         d="M 508.319,402.583 285.585,16.844 C 279.213,5.808 267.352,-0.629 254.624,0.048 c -11.429,0.604 -21.668,6.885 -27.391,16.797 0,-10e-4 -222.735,385.738 -222.735,385.738 -5.998,10.39 -5.997,23.296 0.002,33.683 5.999,10.387 17.177,16.839 29.174,16.839 h 445.47 c 11.996,0 23.179,-6.452 29.177,-16.839 5.996,-10.388 5.998,-23.295 -0.002,-33.683 z m -14.25,25.454 c -3.068,5.313 -8.787,8.613 -14.927,8.613 -0.002,0 -445.472,0 -445.472,0 -6.138,0 -11.855,-3.3 -14.924,-8.611 -3.068,-5.312 -3.069,-11.91 -0.002,-17.228 0,0.001 222.735,-385.737 222.735,-385.737 2.927,-5.068 8.166,-8.28 14.013,-8.594 6.51,-0.347 12.581,2.946 15.838,8.592 0,0.001 222.736,385.74 222.736,385.74 3.071,5.313 3.069,11.912 0.003,17.225 z" />
      <path
         id="path7379"
         style="fill:#000000;fill-opacity:1;stroke:#000000;stroke-width:3.89601;stroke-miterlimit:4;stroke-dasharray:none"
         d="m 269.18766,193.78121 -50.8125,17.0625 c -11.78649,4.01286 -21.44499,9.24235 -12.84375,20.3125 l 5.6875,3.3125 c -1.24133,2.19323 -1.96099,4.71032 -2,7.40625 -0.12415,8.57821 6.73428,15.62584 15.3125,15.75 5.71175,0.0826 10.73291,-2.94397 13.5,-7.5 l 72.09375,42.0625 c -1.03092,2.03906 -1.65223,4.34426 -1.6875,6.78125 -0.12413,8.57822 6.7343,15.62586 15.3125,15.75 5.4667,0.0791 10.32405,-2.67504 13.15625,-6.90625 l 4.3125,2.53125 c 4.77265,1.1829 7.4585,-0.41636 9.875,-2.375 l 12.75,-18.9375 -40.84375,-23.5 -0.3125,-41.25 z m -6.5625,12.28125 30.15625,18.09375 -11.125,16.5625 -30.15625,-18.09375 z m 36.71875,22.03125 17.90625,10.75 -1.125,22.5625 -27.90625,-16.75 z m -172.09377,27.75 -98.343765,170.37502 H 202.03141 V 255.84371 Z m 131.25002,102.21877 c -5.8739,5.74659 -18.57034,10.48955 -28.875,11.1875 -8.30521,-0.10237 -15.88739,-2.62156 -21.875,-6.75 v 15.28125 c 5.99298,4.12531 13.58188,4.64774 21.875,4.75 11.53684,0.1423 21.87214,-2.40017 28.53125,-9.5625 6.43186,6.92231 16.30739,9.42487 27.46875,9.5625 11.53688,0.1423 21.87214,-2.40017 28.53125,-9.5625 6.43194,6.92231 16.30739,9.42487 27.46875,9.5625 11.53688,0.1423 21.87214,-2.40017 28.53126,-9.5625 6.43194,6.92231 16.30739,9.42487 27.46875,9.5625 11.53689,0.1423 21.87215,-2.40017 28.53125,-9.5625 6.43191,6.92231 16.30739,9.42487 27.46875,9.5625 1.95893,0.0242 3.87241,-0.10794 5.75,-0.34375 v -13.25 c -1.87527,0.23471 -3.79311,0.33663 -5.75,0.3125 -10.97167,-0.13525 -20.69682,-4.46652 -27.125,-11.1875 -6.0988,6.05645 -18.411,10.03088 -28.875,11.1875 -10.97163,-0.13525 -20.69682,-4.46652 -27.125,-11.1875 -6.09882,6.05645 -18.41103,10.03089 -28.87501,11.1875 -10.97163,-0.13525 -20.69683,-4.46652 -27.125,-11.1875 -6.0988,6.05645 -18.41101,10.03089 -28.875,11.1875 -10.97163,-0.13524 -20.69683,-4.46652 -27.125,-11.1875 z m 0,28 c -5.8739,5.74659 -18.57034,10.48955 -28.875,11.1875 -8.30521,-0.10237 -15.88739,-2.62156 -21.875,-6.75 v 15.28125 c 5.99298,4.12531 13.58188,4.64774 21.875,4.75 11.53684,0.1423 21.87214,-2.40017 28.53125,-9.5625 6.43186,6.92231 16.30739,9.42487 27.46875,9.5625 11.53688,0.1423 21.87214,-2.40017 28.53125,-9.5625 6.43194,6.92231 16.30739,9.42487 27.46875,9.5625 11.53688,0.1423 21.87214,-2.40017 28.53126,-9.5625 6.43194,6.92231 16.30739,9.42487 27.46875,9.5625 11.53689,0.1423 21.87215,-2.40017 28.53125,-9.5625 6.43191,6.92231 16.30739,9.42487 27.46875,9.5625 7.15951,0.0883 13.85706,-1.63004 19.5,-4.65625 v -13.3125 c -5.6447,3.03067 -12.32787,4.77594 -19.5,4.6875 -10.97167,-0.13525 -20.69682,-4.46652 -27.125,-11.1875 -6.0988,6.05645 -18.411,10.03088 -28.875,11.1875 -10.97163,-0.13525 -20.69682,-4.46652 -27.125,-11.1875 -6.09882,6.05645 -18.41103,10.03089 -28.87501,11.1875 -10.97163,-0.13525 -20.69683,-4.46652 -27.125,-11.1875 -6.0988,6.05645 -18.41101,10.03089 -28.875,11.1875 -10.97163,-0.13524 -20.69683,-4.46652 -27.125,-11.1875 z"
         inkscape:connector-curvature="0" />
    </g>
  </g>
</svg>
