<?xml version="1.0" encoding="UTF-8" standalone="no"?>
<svg
   xmlns:dc="http://purl.org/dc/elements/1.1/"
   xmlns:cc="http://creativecommons.org/ns#"
   xmlns:rdf="http://www.w3.org/1999/02/22-rdf-syntax-ns#"
   xmlns:svg="http://www.w3.org/2000/svg"
   xmlns="http://www.w3.org/2000/svg"
   xmlns:xlink="http://www.w3.org/1999/xlink"
   xmlns:sodipodi="http://sodipodi.sourceforge.net/DTD/sodipodi-0.dtd"
   xmlns:inkscape="http://www.inkscape.org/namespaces/inkscape"
   inkscape:export-ydpi="300.03009"
   inkscape:export-xdpi="300.03009"
   inkscape:export-filename="C:\Users\Jacob\Desktop\yoyodyne.png"
   width="210mm"
   height="297mm"
   viewBox="0 0 210 297"
   version="1.1"
   id="svg8"
   inkscape:version="1.0 (4035a4fb49, 2020-05-01)"
   sodipodi:docname="yoyodyne.svg">
  <defs
     id="defs2">
    <linearGradient
       inkscape:collect="always"
       id="linearGradient1066">
      <stop
         style="stop-color:#ffffff;stop-opacity:1;"
         offset="0"
         id="stop1062" />
      <stop
         style="stop-color:#ffffff;stop-opacity:0;"
         offset="1"
         id="stop1064" />
    </linearGradient>
    <inkscape:path-effect
       effect="powerclip"
       id="path-effect948"
       is_visible="true"
       lpeversion="1"
       inverse="true"
       flatten="false"
       hide_clip="false"
       message="Use fill-rule evenodd on &lt;b&gt;fill and stroke&lt;/b&gt; dialog if no flatten result after convert clip to paths." />
    <rect
       x="196.54762"
       y="141.3631"
       width="100.16369"
       height="14.363095"
       id="rect907" />
    <rect
       x="1.5119048"
       y="0"
       width="9.4494048"
       height="11.339286"
       id="rect901" />
    <clipPath
       clipPathUnits="userSpaceOnUse"
       id="clipPath944">
      <rect
         style="display:block;fill:#2b0000;stroke:none;stroke-width:3.49001;stroke-miterlimit:4;stroke-dasharray:none;stroke-opacity:1"
         id="rect946"
         width="7.1494594"
         height="3.6081386"
         x="199.98442"
         y="113.4559" />
    </clipPath>
    <clipPath
       clipPathUnits="userSpaceOnUse"
       id="clipPath1001">
      <rect
         style="fill:#ffffff;fill-opacity:1;stroke:none;stroke-width:3.49001;stroke-miterlimit:4;stroke-dasharray:none;stroke-opacity:1"
         id="rect1003"
         width="100.49334"
         height="60.670181"
         x="158.7581"
         y="110.38231"
         transform="matrix(0.75663536,0.65383708,0.65383708,-0.75663536,0,0)" />
    </clipPath>
    <clipPath
       clipPathUnits="userSpaceOnUse"
       id="clipPath1007">
      <rect
         style="fill:#ffffff;fill-opacity:1;stroke:none;stroke-width:3.49001;stroke-miterlimit:4;stroke-dasharray:none;stroke-opacity:1"
         id="rect1009"
         width="135.23837"
         height="59.333828"
         x="145.92915"
         y="100.22607"
         transform="matrix(0.75663536,0.65383708,0.65383708,-0.75663536,0,0)" />
    </clipPath>
    <linearGradient
       inkscape:collect="always"
       xlink:href="#linearGradient1066"
       id="linearGradient1068"
       x1="181.42401"
       y1="41.344201"
       x2="317.06747"
       y2="41.344201"
       gradientUnits="userSpaceOnUse" />
    <clipPath
       clipPathUnits="userSpaceOnUse"
       id="clipPath1191">
      <rect
         style="opacity:0.520767;fill:#00ff00;fill-opacity:1;fill-rule:evenodd;stroke:none;stroke-width:1.69893;stroke-miterlimit:4;stroke-dasharray:none;stroke-opacity:1"
         id="rect1193"
         width="131.46263"
         height="55.373512"
         x="187.92725"
         y="127.56695" />
    </clipPath>
    <clipPath
       clipPathUnits="userSpaceOnUse"
       id="clipPath973">
      <path
         id="path975"
         style="fill:#ffffff;fill-rule:evenodd;stroke:none;stroke-width:3.951"
         d="M 307.55593,2.2488316 411.44556,91.871667 465.51553,29.194459 361.62591,-60.428376 Z" />
    </clipPath>
    <clipPath
       clipPathUnits="userSpaceOnUse"
       id="clipPath1009">
      <path
         style="fill:#ffffff;stroke-width:0.057123"
         d="m 387.29798,350.56815 -5.02856,-0.14247 -0.23794,-0.20715 -0.23797,-0.20717 0.003,-0.88778 0.003,-0.88781 -49.57209,-0.35708 c -27.26465,-0.19643 -49.65235,-0.38267 -49.75043,-0.41386 -0.31033,-0.0988 -0.66511,-0.30909 -0.98062,-0.58129 -0.45281,-0.39063 -0.53904,-0.68678 -0.28554,-0.98065 0.19915,-0.23085 0.52144,-0.95152 0.64794,-1.44886 0.23553,-0.92602 0.15967,-1.89958 -0.21685,-2.78302 -0.52396,-1.22939 -1.3565,-1.9476 -2.64944,-2.2856 -1.23444,-0.32272 -2.41069,-0.11883 -3.5969,0.62343 -0.37978,0.23765 -0.58933,0.32952 -0.83458,0.3659 -0.54684,0.0811 -2.46612,0.037 -2.64607,-0.0607 -0.0893,-0.0485 -0.26178,-0.11083 -0.38317,-0.13843 -0.26125,-0.0594 -0.31948,-0.10649 -1.02714,-0.83047 -0.53991,-0.55237 -0.54591,-0.55687 -0.97882,-0.73303 -0.4834,-0.19672 -0.81616,-0.26241 -1.29067,-0.25474 -0.40288,0.007 -0.99983,0.17685 -1.34331,0.38333 -0.14642,0.088 -0.30105,0.16666 -0.34359,0.17478 -0.0426,0.008 -0.27392,0.23215 -0.51411,0.49781 l -0.43675,0.48305 -0.0509,0.6676 c -0.0449,0.58941 -0.0719,0.69665 -0.23042,0.91549 l -0.17957,0.24788 -0.65796,-0.63211 c -1.0937,-1.05074 -1.86707,-1.63682 -3.04095,-2.30447 -1.91001,-1.08638 -4.03245,-1.73548 -6.21905,-1.90196 -0.72387,-0.0551 -2.40476,-0.0444 -2.45654,0.0156 -0.018,0.0209 -0.12629,-0.0428 -0.24064,-0.14147 -0.19082,-0.1646 -0.21017,-0.21093 -0.23486,-0.56203 -0.0247,-0.35086 -0.0118,-0.40013 0.1547,-0.59314 0.10768,-0.1248 0.23216,-0.21656 0.30587,-0.22537 0.1118,-0.0135 0.11763,-0.0986 0.0579,-0.84881 l -0.0664,-0.83389 -0.74135,0.0654 -0.74136,0.0654 0.0634,0.84037 0.0634,0.84034 0.18412,-0.007 c 0.12616,-0.005 0.23851,0.0399 0.35672,0.14182 0.14856,0.12816 0.1763,0.20209 0.19947,0.53152 0.0251,0.35722 0.0141,0.39751 -0.16641,0.60672 -0.18379,0.21304 -0.2287,0.23146 -0.91309,0.3742 -1.67911,0.3502 -3.44261,1.06137 -4.83945,1.95162 -1.26569,0.80663 -2.22859,1.64356 -3.23033,2.8077 l -0.73281,0.85159 -0.1921,-0.16571 c -0.11211,-0.0967 -0.23562,-0.27178 -0.29663,-0.42045 -0.13575,-0.33073 -0.31482,-1.02089 -0.27644,-1.06537 0.0164,-0.019 0.005,-0.0556 -0.0246,-0.0813 -0.0661,-0.0571 -0.36186,-1.13927 -0.32328,-1.18399 0.0151,-0.0175 -0.008,-0.0824 -0.0519,-0.14425 -0.0437,-0.0618 -0.0898,-0.1982 -0.10242,-0.30311 -0.0127,-0.10488 -0.0529,-0.26601 -0.0894,-0.35806 -0.0365,-0.092 -0.0764,-0.2532 -0.0886,-0.35816 -0.0122,-0.10494 -0.0356,-0.20236 -0.0519,-0.21646 -0.0527,-0.0454 -0.27183,-0.93292 -0.23962,-0.97025 0.0171,-0.0198 0.008,-0.0559 -0.0199,-0.0801 -0.064,-0.0552 -0.51909,-1.69497 -0.52453,-1.88992 -0.002,-0.079 -0.0218,-0.15909 -0.0436,-0.17788 -0.0218,-0.0188 -0.0619,-0.13787 -0.0891,-0.26463 -0.0272,-0.12679 -0.0631,-0.24225 -0.0797,-0.2566 -0.0166,-0.0143 -0.0514,-0.10861 -0.0773,-0.20949 -0.80152,-3.12539 -5.84276,-21.64453 -5.91852,-21.74187 -0.26637,-0.34216 -3.51446,-3.34558 -3.81651,-3.52904 -0.13582,-0.0825 -0.34518,-0.1138 -0.74588,-0.11158 -0.30638,0.003 -0.57455,0.0132 -0.59592,0.0259 -0.0279,0.0164 0.23338,17.90801 0.26953,18.45871 0.003,0.0398 0.19741,0.0701 0.45137,0.0701 0.38169,3e-5 0.47275,0.0225 0.62511,0.15388 l 0.17834,0.15386 0.0366,9.31582 0.0366,9.31584 -0.16634,0.19281 c -0.13682,0.15861 -0.20682,0.19378 -0.39461,0.19825 -0.12555,0.003 -3.39315,-0.0201 -7.26134,-0.0516 -3.86819,-0.0314 -7.0607,-0.0302 -7.09448,0.003 -0.0338,0.0328 -4.38826,0.0122 -9.67662,-0.0462 -8.60912,-0.0948 -9.63331,-0.11909 -9.78827,-0.23233 l -0.17305,-0.1265 0.0169,-2.05343 c 0.009,-1.12937 -0.003,-2.06303 -0.0273,-2.07481 -0.0243,-0.0119 -0.0207,-2.81839 0.008,-6.23694 0.046,-5.48386 0.0666,-6.23229 0.17493,-6.35789 0.10707,-0.12408 0.18939,-0.14033 0.64246,-0.12665 0.51716,0.0156 0.51965,0.0148 0.51607,-0.14557 -0.002,-0.0887 0.0497,-4.20593 0.11497,-9.14943 0.0652,-4.94347 0.11251,-9.08457 0.10511,-9.20242 l -0.0135,-0.21426 -0.59187,-0.0164 c -0.32553,-0.009 -0.68646,0.007 -0.80209,0.0366 -0.15691,0.0396 -0.62223,0.37076 -1.83491,1.30585 -0.89358,0.68903 -1.6523,1.30228 -1.68605,1.36276 -0.0337,0.0605 -1.54902,7.15582 -3.36727,15.76734 -1.81825,8.61156 -3.32416,15.67979 -3.34646,15.70718 -0.0694,0.0853 -0.0932,0.69379 -0.10946,2.8008 -0.009,1.11998 -0.0404,2.1132 -0.0706,2.20713 -0.0302,0.0939 -0.0372,0.18597 -0.0157,0.20457 0.067,0.0578 0.11095,0.85299 0.0756,1.36893 -0.0103,0.15031 0.0157,0.34208 0.0578,0.42616 0.0789,0.15772 0.1058,2.82279 0.0306,3.03628 -0.0411,0.11663 0.0469,3.48388 0.093,3.5601 0.0128,0.0212 2.22765,0.14523 4.92196,0.27578 4.01965,0.19479 4.8994,0.25612 4.90246,0.34179 0.002,0.0574 0.041,2.50306 0.0865,5.43473 0.0455,2.93168 0.0859,5.39842 0.0897,5.48166 0.007,0.1488 0.014,0.15168 0.42443,0.17132 0.2296,0.0111 0.45959,0.007 0.51109,-0.008 0.065,-0.0196 0.8258,-1.79139 2.48606,-5.78964 l 2.39243,-5.76146 -0.0249,-1.42772 c -0.0137,-0.78523 -0.006,-1.44753 0.0179,-1.47177 0.0236,-0.0241 3.12013,-0.009 6.88133,0.033 5.52469,0.0622 6.86719,0.0974 6.9877,0.18291 0.13859,0.0984 0.15102,0.18635 0.17523,1.24053 l 0.026,1.13461 2.01274,5.667 c 1.10701,3.11682 2.03761,5.72416 2.06799,5.79406 0.0469,0.10792 0.10846,0.12941 0.40749,0.14235 0.19376,0.008 0.36237,0.0169 0.37471,0.019 0.0123,0.003 -0.038,-2.70582 -0.11177,-6.01755 l -0.13422,-6.02134 0.21606,-0.25045 0.21605,-0.25046 10.27476,0.0997 10.27476,0.0997 0.20606,0.17775 c 0.11611,0.10017 0.32679,0.3825 0.48264,0.64682 1.91879,3.25398 5.00689,5.55435 8.75604,6.52246 4.84498,1.25108 9.85192,0.0431 13.60017,-3.28118 0.6804,-0.60344 1.63843,-1.71646 2.09671,-2.43591 0.19535,-0.30668 0.49639,-0.74147 0.66903,-0.96621 l 0.31385,-0.40862 2.58204,0.0243 c 1.42013,0.0135 2.60109,-0.003 2.62435,-0.0354 0.0233,-0.0328 0.0742,-0.45749 0.11324,-0.94361 0.0661,-0.82328 0.0832,-0.89808 0.25014,-1.09151 l 0.17915,-0.2077 54.39471,0.39351 c 29.91707,0.21643 54.41,0.37577 54.42868,0.3541 0.0188,-0.0217 0.0316,-0.29345 0.0286,-0.60394 -0.005,-0.54203 0.003,-0.57367 0.19103,-0.79227 l 0.19643,-0.22767 2.06811,0.0667 c 1.13747,0.0367 2.11823,0.0477 2.17948,0.0243 0.0612,-0.0233 0.11626,-0.074 0.12226,-0.11266 0.057,-0.36595 0.92316,-1.47325 1.37586,-1.75887 0.33825,-0.21344 1.02344,-0.5211 1.07035,-0.48064 0.0201,0.0172 0.0824,0.007 0.13859,-0.0238 0.0562,-0.0305 0.70008,-0.0372 1.43089,-0.0151 0.73083,0.0222 1.41695,0.042 1.52471,0.044 l 0.19596,0.004 0.0233,-0.988 c 0.0127,-0.54341 0.0185,-1.02929 0.0127,-1.07977 -0.008,-0.0686 -1.28154,-0.12777 -5.03902,-0.23424 z m -106.53826,-9.0593 c 0.27411,0.43704 0.46601,1.03425 0.51141,1.5917 0.12756,1.5661 -0.79115,2.96487 -2.25681,3.43612 -1.82272,0.58608 -3.717,-0.342 -4.31692,-2.115 -0.46289,-1.368 -0.018,-2.93886 1.06513,-3.76126 1.34126,-1.01836 3.28057,-0.93186 4.45794,0.19883 0.1823,0.17508 0.42498,0.46739 0.53925,0.64961 z m -16.60088,1.19597 c 1.81808,2.13815 2.9157,4.71241 3.19084,7.48368 0.24969,2.5146 -0.2953,5.25675 -1.48584,7.47599 -0.51472,0.95949 -0.82918,1.41034 -1.63571,2.34527 -0.80655,0.93493 -1.20641,1.31209 -2.08005,1.96199 -2.36756,1.76117 -5.44545,2.70134 -8.42434,2.57328 -1.99227,-0.0856 -4.0673,-0.65381 -5.78856,-1.58498 -0.96496,-0.52205 -1.41897,-0.83982 -2.36173,-1.65312 -0.94276,-0.8133 -1.3237,-1.21581 -1.9816,-2.09375 -1.17355,-1.5661 -2.03989,-3.53537 -2.41677,-5.49355 -0.56352,-2.9279 -0.0849,-6.11039 1.31001,-8.71064 0.51473,-0.95951 0.82917,-1.41036 1.63572,-2.34529 0.80654,-0.93493 1.2064,-1.31209 2.08004,-1.96196 2.02065,-1.50313 4.65321,-2.44436 7.17724,-2.56617 3.0069,-0.1451 5.88787,0.68088 8.40202,2.40895 0.53969,0.37095 1.93374,1.63698 2.37873,2.1603 z m -9.47788,7.68352 c -0.17105,-0.0754 -0.36613,-0.0992 -0.60129,-0.0732 l -0.3481,0.0385 -1.60613,-1.38557 -1.60614,-1.38557 -0.40874,0.47382 -0.40873,0.47379 1.60083,1.38099 1.60083,1.38099 0.0312,0.39349 c 0.0401,0.5053 0.26636,0.84338 0.73288,1.09495 0.2436,0.13139 0.36842,0.1555 0.69112,0.13351 l 0.39381,-0.0268 3.55533,3.06707 3.55533,3.06708 0.40873,-0.47379 0.40874,-0.47379 -3.56064,-3.07168 -3.56064,-3.07165 -0.0129,-0.34915 c -0.0198,-0.53472 -0.32414,-0.95419 -0.86544,-1.19295 z"
         id="path1011" />
    </clipPath>
  </defs>
  <sodipodi:namedview
     id="base"
     pagecolor="#ffffff"
     bordercolor="#666666"
     borderopacity="1.0"
     inkscape:pageopacity="0.0"
     inkscape:pageshadow="2"
     inkscape:zoom="0.7"
     inkscape:cx="447.96559"
     inkscape:cy="742.6066"
     inkscape:document-units="mm"
     inkscape:current-layer="layer7"
     inkscape:document-rotation="0"
     showgrid="false"
     inkscape:window-width="2293"
     inkscape:window-height="1228"
     inkscape:window-x="604"
     inkscape:window-y="471"
     inkscape:window-maximized="0"
     inkscape:pagecheckerboard="true" />
  <metadata
     id="metadata5">
    <rdf:RDF>
      <cc:Work
         rdf:about="">
        <dc:format>image/svg+xml</dc:format>
        <dc:type
           rdf:resource="http://purl.org/dc/dcmitype/StillImage" />
        <dc:title />
      </cc:Work>
    </rdf:RDF>
  </metadata>
  <g
     style="display:inline"
     inkscape:groupmode="layer"
     id="layer10"
     inkscape:label="Background" />
  <g
     style="display:inline"
     inkscape:groupmode="layer"
     id="layer11"
     inkscape:label="block" />
  <g
     inkscape:groupmode="layer"
     id="layer2"
     inkscape:label="Circle"
     style="display:inline" />
  <g
     inkscape:groupmode="layer"
     id="layer4"
     inkscape:label="Ring"
     style="display:inline" />
  <g
     inkscape:groupmode="layer"
     id="layer3"
     inkscape:label="Triangle"
     style="display:inline" />
  <g
     inkscape:groupmode="layer"
     id="layer8"
     inkscape:label="Circle 2"
     style="display:inline" />
  <g
     inkscape:groupmode="layer"
     id="layer9"
     inkscape:label="Caliper"
     style="display:inline" />
  <g
     inkscape:groupmode="layer"
     id="layer6"
     inkscape:label="Text"
     style="display:inline" />
  <g
     inkscape:groupmode="layer"
     id="layer5"
     inkscape:label="Box"
     style="display:inline" />
  <g
     inkscape:groupmode="layer"
     id="layer7"
     inkscape:label="Rocket"
     style="display:inline">
    <text
       xml:space="preserve"
       id="text899"
       style="font-size:7.76111px;line-height:1.25;font-family:INVADER;-inkscape-font-specification:INVADER;white-space:pre;shape-inside:url(#rect901);" />
    <g
       transform="matrix(0.55412708,0,0,0.55412708,7.232052,26.458449)"
       id="g906">
      <path
         id="path1047"
         style="display:inline;fill:#ffffff;fill-opacity:1;stroke:none;stroke-width:2.4957;stroke-miterlimit:4;stroke-dasharray:none;stroke-opacity:1"
         inkscape:transform-center-x="0.20294738"
         inkscape:transform-center-y="-18.355662"
         d="m 16.219985,170.17158 32.685,-55.41539 32.685,-55.415405 32.076165,55.763805 32.07616,55.76381 -64.761165,-0.34841 z"
         inkscape:export-xdpi="211.12"
         inkscape:export-ydpi="211.12" />
      <ellipse
         inkscape:export-ydpi="211.12"
         inkscape:export-xdpi="211.12"
         ry="8.15172"
         rx="12.628485"
         cy="90.643028"
         cx="58.566242"
         id="path1202"
         style="display:inline;fill:#ffffff;fill-opacity:1;fill-rule:evenodd;stroke:none;stroke-width:4.40085;stroke-miterlimit:4;stroke-dasharray:none;stroke-opacity:1" />
      <ellipse
         inkscape:export-ydpi="211.12"
         inkscape:export-xdpi="211.12"
         ry="9.0326891"
         rx="15.280299"
         cy="99.316956"
         cx="104.18164"
         id="path1208"
         style="display:inline;fill:#ffffff;fill-opacity:1;fill-rule:evenodd;stroke:none;stroke-width:4.45096;stroke-miterlimit:4;stroke-dasharray:none;stroke-opacity:1" />
      <circle
         inkscape:export-ydpi="211.12"
         inkscape:export-xdpi="211.12"
         r="13.803351"
         cy="106.4003"
         cx="81.075882"
         id="path856"
         style="display:inline;fill:#ffffff;stroke:none;stroke-width:0.0755567" />
      <path
         inkscape:export-ydpi="211.12"
         inkscape:export-xdpi="211.12"
         d="m 91.747395,85.581441 c -24.92034,-5.759687 -46.94557,-5.619923 -49.22083,0.312335 -2.27772,5.938339 16.09568,15.433344 41.03834,21.207814 24.942935,5.77454 47.009965,5.64176 49.288045,-0.29658 2.27819,-5.93839 -16.09577,-15.433685 -41.039055,-21.208176 l -0.0665,-0.01539 z m -1.28192,3.530694 c 16.788505,3.88666 31.496915,11.512445 29.963695,15.509415 -1.53321,3.99697 -28.239905,3.16029 -45.028395,-0.72637 -16.78852,-3.88666 -30.47249,-12.284215 -28.93928,-16.281184 1.53321,-3.996973 27.21547,-2.388521 44.00397,1.498139 z"
         style="display:inline;fill:#ffffff;fill-opacity:1;stroke:#ffffff;stroke-width:3.90923;stroke-miterlimit:4;stroke-dasharray:none;stroke-opacity:1"
         id="path1196"
         sodipodi:nodetypes="scscscsssssss" />
      <path
         inkscape:export-ydpi="211.12"
         inkscape:export-xdpi="211.12"
         sodipodi:nodetypes="scscscsssssss"
         id="path923"
         style="display:inline;fill:#2fafd6;fill-opacity:1;stroke:none;stroke-width:2.42;stroke-miterlimit:4;stroke-dasharray:none;stroke-opacity:1"
         d="m 91.405735,86.583704 c -22.75583,-4.986601 -42.86801,-4.865597 -44.94565,0.270413 -2.07988,5.141278 14.69766,13.361843 37.47386,18.361233 22.776465,4.99946 42.926815,4.8845 45.007025,-0.25677 2.08031,-5.141325 -14.69773,-13.362125 -37.474515,-18.361548 l -0.0607,-0.01333 z m -1.17058,3.056792 c 15.330305,3.364989 28.761175,9.967209 27.361125,13.427694 -1.40003,3.46049 -25.787055,2.7361 -41.117345,-0.62888 -15.33031,-3.364985 -27.82573,-10.635375 -26.42569,-14.095867 1.40003,-3.460485 24.85161,-2.067926 40.1819,1.297053 z" />
      <path
         inkscape:export-ydpi="211.12"
         inkscape:export-xdpi="211.12"
         d="m 21.109115,167.74349 30.12207,-51.0701 30.12207,-51.070116 29.560975,51.391196 29.56097,51.3912 -59.683045,-0.32109 z"
         inkscape:transform-center-y="-16.916338"
         inkscape:transform-center-x="0.18703457"
         style="display:inline;fill:#2fafd6;fill-opacity:1;stroke:none;stroke-width:2.3;stroke-miterlimit:4;stroke-dasharray:none;stroke-opacity:1"
         id="path858" />
      <circle
         r="13.914705"
         cy="104.33961"
         cx="81.179855"
         id="path1042"
         style="display:inline;fill:#ffffff;fill-rule:evenodd;stroke:none;stroke-width:5.70396" />
      <path
         sodipodi:nodetypes="ccccc"
         d="m 183.29152,294.78054 62.01502,11.71726 v 67.32065 h -65.79478 z"
         transform="translate(-131.67461,-206.24245)"
         style="display:inline;fill:#ffffff;fill-rule:evenodd;stroke:none;stroke-width:3.34778"
         clip-path="url(#clipPath1009)"
         id="rect977" />
      <g
         inkscape:export-ydpi="211.12"
         inkscape:export-xdpi="211.12"
         clip-path="url(#clipPath1191)"
         transform="translate(-119.81845,-10.205357)"
         id="g964"
         style="display:inline">
        <path
           id="rect879"
           style="fill:#ffffff;stroke:none;stroke-width:3.94089;stroke-miterlimit:4;stroke-dasharray:none;stroke-opacity:1"
           d="M 190.5,136.07143 H 358.69942 V 168.1994 H 190.5 Z" />
        <text
           xml:space="preserve"
           style="font-weight:bold;font-size:20.7782px;line-height:1.25;font-family:Inter;-inkscape-font-specification:'Inter Bold';fill:#2fafd6;fill-opacity:1;stroke-width:0.556558"
           x="248.04463"
           y="154.76553"
           id="text917"
           transform="skewX(-20.187024)"><tspan
             sodipodi:role="line"
             id="tspan915"
             x="248.04463"
             y="154.76553"
             style="fill:#2fafd6;fill-opacity:1;stroke-width:0.556558">YOYODYNE</tspan></text>
        <text
           xml:space="preserve"
           style="font-style:normal;font-variant:normal;font-weight:normal;font-stretch:normal;font-size:9.78995px;line-height:1.25;font-family:Inter;-inkscape-font-specification:Inter;fill:#2fafd6;fill-opacity:1;stroke-width:0.26223"
           x="255.27534"
           y="164.42259"
           id="text921"
           transform="skewX(-20.187024)"><tspan
             sodipodi:role="line"
             id="tspan919"
             x="255.27534"
             y="164.42259"
             style="font-style:normal;font-variant:normal;font-weight:normal;font-stretch:normal;font-family:Inter;-inkscape-font-specification:Inter;fill:#2fafd6;fill-opacity:1;stroke-width:0.26223">PROPULSION SYSTEMS</tspan></text>
      </g>
      <path
         inkscape:export-ydpi="211.12"
         inkscape:export-xdpi="211.12"
         style="fill:#2fafd6;fill-opacity:1;stroke:none;stroke-width:0.00134913"
         id="path1041"
         d="m 74.276045,99.659345 c 0.2667,0.344775 0.74335,0.841745 1.16227,1.214505 1.06262,0.9466 2.45264,1.81848 3.95234,2.48044 0.21423,0.0946 0.6103,0.25948 0.72957,0.30519 0.63503,0.23984 0.90259,0.33477 1.32313,0.4656 1.06364,0.33274 2.10002,0.5761 3.30619,0.77751 0.39232,0.0645 1.1485,0.16789 1.47055,0.19925 0.0463,0.006 0.10304,0.0109 0.12384,0.0125 0.0306,0.003 0.0368,0.0118 0.0366,0.0629 0.004,0.30189 0.2429,0.64456 0.64751,0.92656 0.41434,0.28983 0.94326,0.52247 1.76992,0.77963 0.25217,0.0781 1.28852,0.32139 1.63682,0.38436 0.98496,0.17707 1.92639,0.30076 3.17911,0.41569 l 0.29828,0.028 0.0148,-0.0419 c 0.008,-0.0235 0.0174,-0.0646 0.0218,-0.0922 l 0.005,-0.0497 -0.0954,-0.0224 c -0.0526,-0.0124 -0.20749,-0.0531 -0.34352,-0.0918 -0.13638,-0.0376 -0.36802,-0.10305 -0.51591,-0.14328 -0.75249,-0.20989 -1.53216,-0.45382 -2.20572,-0.69054 -1.18251,-0.41486 -1.95083,-0.81214 -2.0716,-1.07066 -0.035,-0.0723 -0.0162,-0.16092 0.0454,-0.20952 0.0282,-0.0244 0.0505,-0.0269 0.18119,-0.0239 0.6928,0.0155 1.76776,0.004 2.45255,-0.0293 l 0.0507,-0.003 0.24697,-0.68996 0.24864,-0.68958 1.59185,0.37048 1.59313,0.37187 0.0865,-0.24522 0.0865,-0.24524 -1.5957,-0.3747 -1.5957,-0.3747 0.24074,-0.69253 0.2391,-0.69292 -0.24476,-0.13936 c -0.52539,-0.29818 -1.26447,-0.68749 -1.77905,-0.93557 -0.20256,-0.0974 -0.20256,-0.0974 -0.20859,-0.14081 -0.002,-0.0239 0.005,-0.0686 0.0151,-0.0982 0.11239,-0.31329 1.44437,-0.29705 3.56536,0.0427 0.51602,0.0825 0.86995,0.14453 1.29229,0.22488 0.15149,0.03 0.39036,0.0751 0.53031,0.10235 0.14036,0.0264 0.29808,0.0589 0.35072,0.0713 l 0.0954,0.0224 0.028,-0.0443 c 0.0144,-0.0254 0.0334,-0.0642 0.0415,-0.0876 l 0.0148,-0.0419 -0.27091,-0.10566 c -1.1359,-0.44597 -2.0139,-0.74951 -2.96352,-1.026715 -0.33603,-0.0977 -1.37242,-0.34108 -1.63682,-0.38435 -0.86775,-0.14069 -1.46735,-0.17306 -2.00712,-0.10726 -0.53013,0.0635 -0.96052,0.25353 -1.15562,0.50868 -0.0232,0.03 -0.0445,0.0504 -0.0503,0.0468 -0.0143,-0.0103 -0.57815,-0.21431 -0.82155,-0.29691 -0.38934,-0.13346 -0.69927,-0.22948 -1.31541,-0.41179 -0.31796,-0.0935 -1.71296,-0.42104 -2.03987,-0.47899 -1.51433,-0.26708 -2.6368,-0.37242 -3.96531,-0.37347 -1.27324,-0.002 -2.68681,0.14802 -3.83957,0.40624 -0.60502,0.13454 -1.45088,0.38624 -1.85602,0.55003 l -0.19103,0.0767 -0.0198,0.0618 -0.0216,0.0613 z" />
    </g>
  </g>
</svg>
